# xmcd
#
# Track frame offsets:
#	150
#	15016
#	26047
#	39348
#	52579
#	63123
#	72717
#	85494
#	97970
#	114082
#	126776
#	138850
#	159024
#	171908
#	186776
#	202390
#	216554
#	229278
#	241149
#	255712
#
# Disc length: 3592 seconds
#
# Revision: 0
# Processed by: cddbd v1.5.2PL0 Copyright (c) Steve Scherf et al.
# Submitted via: EasyCDDAExtractor 16.0.6.1
#
DISCID=0a0e0614
DTITLE=Συλλογικός δίσκος - Τα μεγάλα τραγούδια-Γ. Σπανός 3
DYEAR=2010
DGENRE=Ποικίλη
TTITLE0=Καράλης Κώστας - Ιδανικός κι ανάξιος εραστής [Νίκος Καββαδίας]
TTITLE1=Χωματά Καίτη-Βιολάρης Μιχάλης - Μαυρομαλλούσα κοπελιά [Κώστας Κωτούλας
TTITLE1=]
TTITLE2=Πουλόπουλος Γιάννης - Παιδί μου, ώρα σου καλή [Γεώργιος Βιζυηνός]
TTITLE3=Μοσχολιού Βίκυ - Σ' ένα εξπρές [Κυριάκος Ντούμος]
TTITLE4=Αστεριάδη Πόπη - Στου τηλεφώνου το κοχύλι [Γεώργιος Αθάνας]
TTITLE5=Ζωγράφος Γιώργος - Τ' όνειρό μου πέθανε [Ναπολέων Λαπαθιώτης]
TTITLE6=Αρλέτα - Το λέει και το τραγούδι [Λιλή Ιακωβίδη]
TTITLE7=Καρράς Κώστας - Θυμήσου τον Σεπτέμβρη [Γιώργος Παπαστεφάνου]
TTITLE8=Δημητριάδη Μαρία - Σ' αναζητώ [Αλέξης Αλεξόπουλος]
TTITLE9=Πουλόπουλος Γιάννης - Χάρτινες καρδιές [Θάνος Σοφός]
TTITLE10=Χωματά Καίτη - Το Χριστινάκι [Βασίλης Ρώτας]
TTITLE11=Μαθές Γιάννης - Δύσκολοι καιροί [Λίνα Νικολακοπούλου]
TTITLE12=Αστεριάδη Πόπη - Μόνο γιατί μ' αγάπησες [Μαρία Πολυδούρη]
TTITLE13=Δήμου Ελένη - Στην αλάνα [Λευτέρης Παπαδόπουλος]
TTITLE14=Μοσχολιού Βίκυ - Τα καρνάγια [Λευτέρης Παπαδόπουλος]
TTITLE15=Χωματά Καίτη - Μιλάς [Κώστας Γεωργουσόπουλος]
TTITLE16=Γιοβάννα - Ζήτησα απ' τον άνεμο [Κώστας Κινδύνης]
TTITLE17=Βιολάρης Μιχάλης - Μην κλαίς για μένανε [Λευτέρης Παπαδόπουλος]
TTITLE18=Μαθές Γιάννης - Πάντα νύχτα [Τάκης Καρνάτσος]
TTITLE19=Αρλέτα - Σε είπανε θεό [Δημήτης Δούκαρης]
EXTD=
EXTT0=
EXTT1=
EXTT2=
EXTT3=
EXTT4=
EXTT5=
EXTT6=
EXTT7=
EXTT8=
EXTT9=
EXTT10=
EXTT11=
EXTT12=
EXTT13=
EXTT14=
EXTT15=
EXTT16=
EXTT17=
EXTT18=
EXTT19=
PLAYORDER=
